<svg xmlns="http://www.w3.org/2000/svg"  fill="#7315e5" viewBox="0 0 512 512"><!--! Font Awesome Pro 6.2.1 by @fontawesome - https://fontawesome.com License - https://fontawesome.com/license (Commercial License) Copyright 2022 Fonticons, Inc. --><path d="M 259.343 257.932 C 224.061 257.932 195.379 228.283 195.379 191.816 C 195.379 155.351 224.061 125.702 259.343 125.702 C 294.621 125.702 323.305 155.351 323.305 191.816 C 323.305 228.283 294.621 257.932 259.343 257.932 Z" style='fill: rgb(255, 255, 255);' /> <path d="M 280.155 485.71 C 329.491 423.966 442.013 274.323 442.013 190.267 C 442.013 88.325 359.305 5.617 257.362 5.617 C 155.419 5.617 72.711 88.325 72.711 190.267 C 72.711 274.323 185.233 423.966 234.569 485.71 C 246.398 500.424 268.326 500.424 280.155 485.71 Z M 257.362 251.819 C 223.413 251.819 195.811 224.217 195.811 190.267 C 195.811 156.318 223.413 128.717 257.362 128.717 C 291.311 128.717 318.913 156.318 318.913 190.267 C 318.913 224.217 291.311 251.819 257.362 251.819 Z"/></svg>